<mxfile host="Electron" agent="Mozilla/5.0 (Windows NT 10.0; Win64; x64) AppleWebKit/537.36 (KHTML, like Gecko) draw.io/28.0.6 Chrome/138.0.7204.100 Electron/37.2.3 Safari/537.36" version="28.0.6" pages="2">
  <diagram name="Tofu environment challenges" id="cuvCBNSIVO5x0neWIZzn">
    <mxGraphModel dx="1683" dy="686" grid="1" gridSize="10" guides="1" tooltips="1" connect="1" arrows="1" fold="1" page="1" pageScale="1" pageWidth="827" pageHeight="1169" math="0" shadow="0">
      <root>
        <mxCell id="0" />
        <mxCell id="1" parent="0" />
        <mxCell id="5pwpHiO2dpwCaAwtCeID-34" value="" style="rounded=0;whiteSpace=wrap;html=1;fillColor=none;" vertex="1" parent="1">
          <mxGeometry x="510" y="30" width="340" height="380" as="geometry" />
        </mxCell>
        <mxCell id="AZzk-wuk6sMlwUzYf-Ho-27" value="" style="group" parent="1" vertex="1" connectable="0">
          <mxGeometry x="50" y="83.5" width="100" height="273" as="geometry" />
        </mxCell>
        <mxCell id="AZzk-wuk6sMlwUzYf-Ho-8" value="development&lt;br&gt;server" style="image;points=[];aspect=fixed;html=1;align=center;shadow=0;dashed=0;image=img/lib/allied_telesis/computer_and_terminals/Server_Desktop.svg;" parent="AZzk-wuk6sMlwUzYf-Ho-27" vertex="1">
          <mxGeometry x="29.789999999999992" y="219" width="42.599999999999994" height="54" as="geometry" />
        </mxCell>
        <mxCell id="AZzk-wuk6sMlwUzYf-Ho-28" value="" style="group" parent="1" vertex="1" connectable="0">
          <mxGeometry x="323" y="123.5" width="42.60000000000002" height="233" as="geometry" />
        </mxCell>
        <mxCell id="AZzk-wuk6sMlwUzYf-Ho-26" value="" style="group" parent="AZzk-wuk6sMlwUzYf-Ho-28" vertex="1" connectable="0">
          <mxGeometry x="-273" y="-83.5" width="100" height="110" as="geometry" />
        </mxCell>
        <mxCell id="AZzk-wuk6sMlwUzYf-Ho-2" value="development&lt;br&gt;configuration" style="verticalLabelPosition=top;html=1;verticalAlign=bottom;strokeWidth=1;align=center;outlineConnect=0;dashed=0;outlineConnect=0;shape=mxgraph.aws3d.file;aspect=fixed;strokeColor=#292929;labelPosition=center;" parent="AZzk-wuk6sMlwUzYf-Ho-26" vertex="1">
          <mxGeometry x="38" y="40" width="26.18" height="60" as="geometry" />
        </mxCell>
        <mxCell id="AZzk-wuk6sMlwUzYf-Ho-15" value="" style="group" parent="AZzk-wuk6sMlwUzYf-Ho-26" vertex="1" connectable="0">
          <mxGeometry width="100" height="110" as="geometry" />
        </mxCell>
        <mxCell id="AZzk-wuk6sMlwUzYf-Ho-14" value="" style="rounded=1;whiteSpace=wrap;html=1;fontColor=default;fillColor=none;strokeColor=none;" parent="AZzk-wuk6sMlwUzYf-Ho-15" vertex="1">
          <mxGeometry width="100" height="110" as="geometry" />
        </mxCell>
        <mxCell id="AZzk-wuk6sMlwUzYf-Ho-16" value="" style="group" parent="AZzk-wuk6sMlwUzYf-Ho-28" vertex="1" connectable="0">
          <mxGeometry x="-193" y="-83.5" width="100" height="110" as="geometry" />
        </mxCell>
        <mxCell id="AZzk-wuk6sMlwUzYf-Ho-18" value="" style="rounded=1;whiteSpace=wrap;html=1;fontColor=default;fillColor=none;strokeColor=none;" parent="AZzk-wuk6sMlwUzYf-Ho-16" vertex="1">
          <mxGeometry width="100" height="110" as="geometry" />
        </mxCell>
        <mxCell id="AZzk-wuk6sMlwUzYf-Ho-22" value="" style="group" parent="AZzk-wuk6sMlwUzYf-Ho-28" vertex="1" connectable="0">
          <mxGeometry x="-113" y="-83.5" width="100" height="110" as="geometry" />
        </mxCell>
        <mxCell id="AZzk-wuk6sMlwUzYf-Ho-24" value="" style="rounded=1;whiteSpace=wrap;html=1;fontColor=default;fillColor=none;strokeColor=none;" parent="AZzk-wuk6sMlwUzYf-Ho-22" vertex="1">
          <mxGeometry width="100" height="110" as="geometry" />
        </mxCell>
        <mxCell id="AZzk-wuk6sMlwUzYf-Ho-25" value="" style="endArrow=classic;html=1;rounded=0;" parent="AZzk-wuk6sMlwUzYf-Ho-28" edge="1">
          <mxGeometry width="50" height="50" relative="1" as="geometry">
            <mxPoint x="18" y="26.5" as="sourcePoint" />
            <mxPoint x="18" y="170" as="targetPoint" />
          </mxGeometry>
        </mxCell>
        <mxCell id="AZzk-wuk6sMlwUzYf-Ho-11" value="production&lt;br&gt;server" style="image;points=[];aspect=fixed;html=1;align=center;shadow=0;dashed=0;image=img/lib/allied_telesis/computer_and_terminals/Server_Desktop.svg;" parent="AZzk-wuk6sMlwUzYf-Ho-28" vertex="1">
          <mxGeometry y="179" width="42.599999999999994" height="54" as="geometry" />
        </mxCell>
        <mxCell id="AZzk-wuk6sMlwUzYf-Ho-7" value="production&lt;br&gt;configuration" style="verticalLabelPosition=top;html=1;verticalAlign=bottom;strokeWidth=1;align=center;outlineConnect=0;dashed=0;outlineConnect=0;shape=mxgraph.aws3d.file;aspect=fixed;strokeColor=#292929;labelPosition=center;" parent="AZzk-wuk6sMlwUzYf-Ho-28" vertex="1">
          <mxGeometry x="8.409999999999968" y="-43.5" width="26.18" height="60" as="geometry" />
        </mxCell>
        <mxCell id="AZzk-wuk6sMlwUzYf-Ho-4" value="integration&lt;br&gt;configuration" style="verticalLabelPosition=top;html=1;verticalAlign=bottom;strokeWidth=1;align=center;outlineConnect=0;dashed=0;outlineConnect=0;shape=mxgraph.aws3d.file;aspect=fixed;strokeColor=#292929;labelPosition=center;" parent="AZzk-wuk6sMlwUzYf-Ho-28" vertex="1">
          <mxGeometry x="-73" y="-43.5" width="26.18" height="60" as="geometry" />
        </mxCell>
        <mxCell id="AZzk-wuk6sMlwUzYf-Ho-3" value="test&lt;br&gt;configuration" style="verticalLabelPosition=top;html=1;verticalAlign=bottom;strokeWidth=1;align=center;outlineConnect=0;dashed=0;outlineConnect=0;shape=mxgraph.aws3d.file;aspect=fixed;strokeColor=#292929;labelPosition=center;" parent="AZzk-wuk6sMlwUzYf-Ho-28" vertex="1">
          <mxGeometry x="-153" y="-43.5" width="26.18" height="60" as="geometry" />
        </mxCell>
        <mxCell id="AZzk-wuk6sMlwUzYf-Ho-29" value="" style="group" parent="1" vertex="1" connectable="0">
          <mxGeometry x="210" y="83.5" width="190" height="316.5" as="geometry" />
        </mxCell>
        <mxCell id="AZzk-wuk6sMlwUzYf-Ho-23" value="" style="endArrow=classic;html=1;rounded=0;exitX=0.5;exitY=1;exitDx=0;exitDy=0;" parent="AZzk-wuk6sMlwUzYf-Ho-29" source="AZzk-wuk6sMlwUzYf-Ho-24" edge="1">
          <mxGeometry width="50" height="50" relative="1" as="geometry">
            <mxPoint x="268" y="550" as="sourcePoint" />
            <mxPoint x="50" y="210" as="targetPoint" />
          </mxGeometry>
        </mxCell>
        <mxCell id="AZzk-wuk6sMlwUzYf-Ho-10" value="staging&lt;br&gt;server" style="image;points=[];aspect=fixed;html=1;align=center;shadow=0;dashed=0;image=img/lib/allied_telesis/computer_and_terminals/Server_Desktop.svg;" parent="AZzk-wuk6sMlwUzYf-Ho-29" vertex="1">
          <mxGeometry x="31.79000000000002" y="219" width="42.599999999999994" height="54" as="geometry" />
        </mxCell>
        <mxCell id="AZzk-wuk6sMlwUzYf-Ho-30" value="" style="group" parent="1" vertex="1" connectable="0">
          <mxGeometry x="130" y="83.5" width="100" height="273" as="geometry" />
        </mxCell>
        <mxCell id="AZzk-wuk6sMlwUzYf-Ho-17" value="" style="endArrow=classic;html=1;rounded=0;exitX=0.5;exitY=1;exitDx=0;exitDy=0;" parent="AZzk-wuk6sMlwUzYf-Ho-30" source="AZzk-wuk6sMlwUzYf-Ho-18" edge="1">
          <mxGeometry width="50" height="50" relative="1" as="geometry">
            <mxPoint x="268" y="550" as="sourcePoint" />
            <mxPoint x="50" y="210" as="targetPoint" />
          </mxGeometry>
        </mxCell>
        <mxCell id="AZzk-wuk6sMlwUzYf-Ho-9" value="integration&lt;br&gt;server" style="image;points=[];aspect=fixed;html=1;align=center;shadow=0;dashed=0;image=img/lib/allied_telesis/computer_and_terminals/Server_Desktop.svg;" parent="AZzk-wuk6sMlwUzYf-Ho-30" vertex="1">
          <mxGeometry x="31.789999999999992" y="219" width="42.599999999999994" height="54" as="geometry" />
        </mxCell>
        <mxCell id="AZzk-wuk6sMlwUzYf-Ho-31" value="" style="shape=flexArrow;endArrow=classic;startArrow=classic;html=1;rounded=0;" parent="1" edge="1">
          <mxGeometry width="100" height="100" relative="1" as="geometry">
            <mxPoint x="413" y="219.71" as="sourcePoint" />
            <mxPoint x="503" y="219.71" as="targetPoint" />
          </mxGeometry>
        </mxCell>
        <mxCell id="5pwpHiO2dpwCaAwtCeID-1" value="development&lt;br&gt;server" style="image;points=[];aspect=fixed;html=1;align=center;shadow=0;dashed=0;image=img/lib/allied_telesis/computer_and_terminals/Server_Desktop.svg;" vertex="1" parent="1">
          <mxGeometry x="547" y="309" width="42.599999999999994" height="54" as="geometry" />
        </mxCell>
        <mxCell id="5pwpHiO2dpwCaAwtCeID-2" value="production&lt;br&gt;server" style="image;points=[];aspect=fixed;html=1;align=center;shadow=0;dashed=0;image=img/lib/allied_telesis/computer_and_terminals/Server_Desktop.svg;" vertex="1" parent="1">
          <mxGeometry x="790.21" y="309" width="42.599999999999994" height="54" as="geometry" />
        </mxCell>
        <mxCell id="5pwpHiO2dpwCaAwtCeID-3" value="staging&lt;br&gt;server" style="image;points=[];aspect=fixed;html=1;align=center;shadow=0;dashed=0;image=img/lib/allied_telesis/computer_and_terminals/Server_Desktop.svg;" vertex="1" parent="1">
          <mxGeometry x="709" y="309" width="42.599999999999994" height="54" as="geometry" />
        </mxCell>
        <mxCell id="5pwpHiO2dpwCaAwtCeID-4" value="integration&lt;br&gt;server" style="image;points=[];aspect=fixed;html=1;align=center;shadow=0;dashed=0;image=img/lib/allied_telesis/computer_and_terminals/Server_Desktop.svg;" vertex="1" parent="1">
          <mxGeometry x="629" y="309" width="42.599999999999994" height="54" as="geometry" />
        </mxCell>
        <mxCell id="5pwpHiO2dpwCaAwtCeID-11" value="prod&lt;br&gt;config&lt;br&gt;values" style="verticalLabelPosition=top;html=1;verticalAlign=bottom;strokeWidth=1;align=center;outlineConnect=0;dashed=0;outlineConnect=0;shape=mxgraph.aws3d.file;aspect=fixed;strokeColor=#292929;labelPosition=center;" vertex="1" parent="1">
          <mxGeometry x="780.41" y="83.5" width="26.18" height="60" as="geometry" />
        </mxCell>
        <mxCell id="5pwpHiO2dpwCaAwtCeID-12" value="stage&lt;br&gt;config&lt;br&gt;values" style="verticalLabelPosition=top;html=1;verticalAlign=bottom;strokeWidth=1;align=center;outlineConnect=0;dashed=0;outlineConnect=0;shape=mxgraph.aws3d.file;aspect=fixed;strokeColor=#292929;labelPosition=center;" vertex="1" parent="1">
          <mxGeometry x="699" y="83.5" width="26.18" height="60" as="geometry" />
        </mxCell>
        <mxCell id="5pwpHiO2dpwCaAwtCeID-15" value="int&lt;br&gt;config&lt;br&gt;values" style="verticalLabelPosition=top;html=1;verticalAlign=bottom;strokeWidth=1;align=center;outlineConnect=0;dashed=0;outlineConnect=0;shape=mxgraph.aws3d.file;aspect=fixed;strokeColor=#292929;labelPosition=center;" vertex="1" parent="1">
          <mxGeometry x="619" y="83.5" width="26.18" height="60" as="geometry" />
        </mxCell>
        <mxCell id="5pwpHiO2dpwCaAwtCeID-7" value="dev&lt;br&gt;config&lt;br&gt;values" style="verticalLabelPosition=top;html=1;verticalAlign=bottom;strokeWidth=1;align=center;outlineConnect=0;dashed=0;outlineConnect=0;shape=mxgraph.aws3d.file;aspect=fixed;strokeColor=#292929;labelPosition=center;" vertex="1" parent="1">
          <mxGeometry x="537" y="83.5" width="26.18" height="60" as="geometry" />
        </mxCell>
        <mxCell id="AZzk-wuk6sMlwUzYf-Ho-13" value="" style="endArrow=classic;html=1;rounded=0;exitX=0.5;exitY=1;exitDx=0;exitDy=0;" parent="1" source="AZzk-wuk6sMlwUzYf-Ho-14" edge="1" target="AZzk-wuk6sMlwUzYf-Ho-8">
          <mxGeometry width="50" height="50" relative="1" as="geometry">
            <mxPoint x="318" y="590" as="sourcePoint" />
            <mxPoint x="100" y="250" as="targetPoint" />
          </mxGeometry>
        </mxCell>
        <mxCell id="5pwpHiO2dpwCaAwtCeID-23" value="" style="group" vertex="1" connectable="0" parent="1">
          <mxGeometry x="665" y="200" width="95.29999999999995" height="60" as="geometry" />
        </mxCell>
        <mxCell id="AZzk-wuk6sMlwUzYf-Ho-33" value="" style="verticalLabelPosition=middle;html=1;verticalAlign=middle;strokeWidth=1;align=left;outlineConnect=0;dashed=0;outlineConnect=0;shape=mxgraph.aws3d.file;aspect=fixed;strokeColor=#292929;labelPosition=right;container=0;" parent="5pwpHiO2dpwCaAwtCeID-23" vertex="1">
          <mxGeometry width="26.18" height="60" as="geometry" />
        </mxCell>
        <mxCell id="5pwpHiO2dpwCaAwtCeID-20" value="&lt;span style=&quot;text-wrap-mode: nowrap;&quot;&gt;configuration&lt;/span&gt;&lt;br style=&quot;text-wrap-mode: nowrap;&quot;&gt;&lt;span style=&quot;text-wrap-mode: nowrap;&quot;&gt;definition/structure&lt;/span&gt;" style="text;html=1;align=left;verticalAlign=middle;whiteSpace=wrap;rounded=0;" vertex="1" parent="5pwpHiO2dpwCaAwtCeID-23">
          <mxGeometry x="35.299999999999955" y="20" width="60" height="30" as="geometry" />
        </mxCell>
        <mxCell id="5pwpHiO2dpwCaAwtCeID-26" value="" style="endArrow=classic;html=1;rounded=0;fillColor=#f8cecc;strokeColor=#b85450;" edge="1" parent="1">
          <mxGeometry width="50" height="50" relative="1" as="geometry">
            <mxPoint x="547" y="150" as="sourcePoint" />
            <mxPoint x="677" y="200" as="targetPoint" />
            <Array as="points">
              <mxPoint x="547" y="160" />
              <mxPoint x="677" y="190" />
            </Array>
          </mxGeometry>
        </mxCell>
        <mxCell id="5pwpHiO2dpwCaAwtCeID-27" value="" style="endArrow=classic;html=1;rounded=0;fillColor=#e1d5e7;strokeColor=#9673a6;" edge="1" parent="1">
          <mxGeometry width="50" height="50" relative="1" as="geometry">
            <mxPoint x="627" y="150" as="sourcePoint" />
            <mxPoint x="677" y="200" as="targetPoint" />
            <Array as="points">
              <mxPoint x="627" y="160" />
              <mxPoint x="677" y="190" />
            </Array>
          </mxGeometry>
        </mxCell>
        <mxCell id="5pwpHiO2dpwCaAwtCeID-28" value="" style="endArrow=classic;html=1;rounded=0;fillColor=#d5e8d4;strokeColor=#82b366;" edge="1" parent="1">
          <mxGeometry width="50" height="50" relative="1" as="geometry">
            <mxPoint x="707" y="150" as="sourcePoint" />
            <mxPoint x="677" y="200" as="targetPoint" />
            <Array as="points">
              <mxPoint x="707" y="160" />
              <mxPoint x="677" y="190" />
            </Array>
          </mxGeometry>
        </mxCell>
        <mxCell id="5pwpHiO2dpwCaAwtCeID-29" value="" style="endArrow=classic;html=1;rounded=0;" edge="1" parent="1">
          <mxGeometry width="50" height="50" relative="1" as="geometry">
            <mxPoint x="790.21" y="143.5" as="sourcePoint" />
            <mxPoint x="677" y="200" as="targetPoint" />
            <Array as="points">
              <mxPoint x="790" y="160" />
              <mxPoint x="677" y="190" />
            </Array>
          </mxGeometry>
        </mxCell>
        <mxCell id="5pwpHiO2dpwCaAwtCeID-30" value="" style="endArrow=classic;html=1;rounded=0;entryX=0.469;entryY=0.019;entryDx=0;entryDy=0;entryPerimeter=0;fillColor=#f8cecc;strokeColor=#b85450;" edge="1" parent="1" target="5pwpHiO2dpwCaAwtCeID-1">
          <mxGeometry width="50" height="50" relative="1" as="geometry">
            <mxPoint x="677" y="260" as="sourcePoint" />
            <mxPoint x="687" y="280" as="targetPoint" />
          </mxGeometry>
        </mxCell>
        <mxCell id="5pwpHiO2dpwCaAwtCeID-31" value="" style="endArrow=classic;html=1;rounded=0;entryX=0.503;entryY=-0.063;entryDx=0;entryDy=0;entryPerimeter=0;fillColor=#e1d5e7;strokeColor=#9673a6;" edge="1" parent="1" target="5pwpHiO2dpwCaAwtCeID-4">
          <mxGeometry width="50" height="50" relative="1" as="geometry">
            <mxPoint x="677" y="260" as="sourcePoint" />
            <mxPoint x="725.18" y="320" as="targetPoint" />
          </mxGeometry>
        </mxCell>
        <mxCell id="5pwpHiO2dpwCaAwtCeID-32" value="" style="endArrow=classic;html=1;rounded=0;entryX=0.476;entryY=-0.011;entryDx=0;entryDy=0;entryPerimeter=0;fillColor=#d5e8d4;strokeColor=#82b366;" edge="1" parent="1" target="5pwpHiO2dpwCaAwtCeID-3">
          <mxGeometry width="50" height="50" relative="1" as="geometry">
            <mxPoint x="677" y="260" as="sourcePoint" />
            <mxPoint x="677" y="316" as="targetPoint" />
          </mxGeometry>
        </mxCell>
        <mxCell id="5pwpHiO2dpwCaAwtCeID-33" value="" style="endArrow=classic;html=1;rounded=0;entryX=0.434;entryY=0.032;entryDx=0;entryDy=0;entryPerimeter=0;" edge="1" parent="1" target="5pwpHiO2dpwCaAwtCeID-2">
          <mxGeometry width="50" height="50" relative="1" as="geometry">
            <mxPoint x="677" y="260" as="sourcePoint" />
            <mxPoint x="829" y="318" as="targetPoint" />
          </mxGeometry>
        </mxCell>
        <mxCell id="5pwpHiO2dpwCaAwtCeID-35" value="" style="rounded=0;whiteSpace=wrap;html=1;fillColor=none;" vertex="1" parent="1">
          <mxGeometry x="50" y="30" width="350" height="380" as="geometry" />
        </mxCell>
      </root>
    </mxGraphModel>
  </diagram>
  <diagram id="fJmJ62gxe9bH8uVKlpfr" name="Seite-2">
    <mxGraphModel grid="1" page="1" gridSize="10" guides="1" tooltips="1" connect="1" arrows="1" fold="1" pageScale="1" pageWidth="827" pageHeight="1169" math="0" shadow="0">
      <root>
        <mxCell id="0" />
        <mxCell id="1" parent="0" />
      </root>
    </mxGraphModel>
  </diagram>
</mxfile>
